# xmcd CD database file
#
# Track frame offsets:
#	150
#	20317
#	42620
#	60210
#	77740
#	97175
#	116765
#	136170
#	155762
#	174777
#	193017
#
# Disc length: 2888 seconds
#
# Revision: 3
# Processed by: cddbd v1.5.2PL0 Copyright (c) Steve Scherf et al.
# Submitted via: CDex 1.70beta3
#
DISCID=8b0b460b
DTITLE=Brighton Rock - Take A Deep Breath
DYEAR=1988
DGENRE=Hard Rock
TTITLE0=Can't Stop The Earth From Shakin
TTITLE1=Outlaw
TTITLE2=Hangin' High 'N' Dry
TTITLE3=One More Try
TTITLE4=Ride The Rainbow
TTITLE5=Rebels With A Case
TTITLE6=Power Overload
TTITLE7=Who's Foolin Who
TTITLE8=Love Slips Away
TTITLE9=Shootin For Love
TTITLE10=Unlease The Rage
EXTD=YEAR: 1988
EXTT0=
EXTT1=
EXTT2=
EXTT3=
EXTT4=
EXTT5=
EXTT6=
EXTT7=
EXTT8=
EXTT9=
EXTT10=
PLAYORDER=
